<?xml version="1.0" standalone="no"?>
<!DOCTYPE svg PUBLIC "-//W3C//DTD SVG 20010904//EN"
 "http://www.w3.org/TR/2001/REC-SVG-20010904/DTD/svg10.dtd">
<svg version="1.1" xmlns="http://www.w3.org/2000/svg" x="0px" y="0px"
 width="150" height="150" viewBox="0 0 150 150"
 preserveAspectRatio="xMidYMid meet">
<g transform="translate(0.000000,150.000000) scale(0.100000,-0.100000)"
fill="#000000" stroke="none">
<path d="M375 838 c-4 -189 -5 -359 -3 -378 3 -33 5 -35 46 -38 l42 -3 0 145
0 146 160 0 159 0 122 -145 121 -145 55 0 c30 0 53 4 51 9 -1 5 -54 68 -115
140 -62 72 -113 133 -113 136 0 3 35 5 79 5 65 0 83 4 106 22 45 35 55 74 55
213 0 139 -10 178 -55 213 -27 22 -34 22 -365 22 l-338 0 -7 -342z m663 250
c13 -13 18 -242 6 -272 -5 -14 -40 -16 -283 -16 -202 0 -280 3 -289 12 -8 8
-12 53 -12 134 0 98 3 126 16 138 13 14 53 16 283 16 194 0 270 -3 279 -12z"/>
</g>
</svg>
