<?xml version="1.0" encoding="UTF-8" standalone="no"?>
<svg width="152px" height="152px" viewBox="0 0 152 152" version="1.1" xmlns="http://www.w3.org/2000/svg" xmlns:xlink="http://www.w3.org/1999/xlink" xmlns:sketch="http://www.bohemiancoding.com/sketch/ns">
    <!-- Generator: Sketch 3.3.2 (12043) - http://www.bohemiancoding.com/sketch -->
    <title>Icon-76@2x</title>
    <desc>Created with Sketch.</desc>
    <defs></defs>
    <g id="Page-1" stroke="none" stroke-width="1" fill="none" fill-rule="evenodd" sketch:type="MSPage">
        <g id="Icon-76@2x" sketch:type="MSArtboardGroup">
            <path d="M52.9935333,0 L99.0064667,0 C114.266,0 121.893867,0 130.1082,2.59666667 C139.0762,5.86086667 146.139133,12.9238 149.403333,21.8918 C152,30.1048667 152,37.7352667 152,52.9935333 L152,99.0064667 C152,114.266 152,121.893867 149.403333,130.1082 C146.139133,139.0762 139.0762,146.139133 130.1082,149.402067 C121.893867,152 114.266,152 99.0064667,152 L52.9935333,152 C37.734,152 30.1048667,152 21.8918,149.402067 C12.9238,146.139133 5.86086667,139.0762 2.59666667,130.1082 C0,121.893867 0,114.266 0,99.0064667 L0,52.9935333 C0,37.7352667 0,30.1048667 2.59666667,21.8918 C5.86086667,12.9238 12.9238,5.86086667 21.8918,2.59666667 C30.1048667,0 37.734,0 52.9935333,0 L52.9935333,0" id="Icon-Shape" sketch:type="MSShapeGroup"></path>
            <text id="R" sketch:type="MSTextLayer" font-family="Orbitron" font-size="144" font-weight="normal" fill="#000000">
                <tspan x="17" y="127">R</tspan>
            </text>
        </g>
    </g>
</svg>