<?xml version="1.0" encoding="UTF-8" standalone="no"?>
<svg width="222px" height="222px" viewBox="0 0 222 222" version="1.1" xmlns="http://www.w3.org/2000/svg" xmlns:xlink="http://www.w3.org/1999/xlink">
    <!-- Generator: Sketch 39.1 (31720) - http://www.bohemiancoding.com/sketch -->
    <title>Reckoning Favicon</title>
    <desc>Created with Sketch.</desc>
    <defs>
        <rect id="path-1" x="1" y="1" width="220" height="220"></rect>
        <mask id="mask-2" maskContentUnits="userSpaceOnUse" maskUnits="objectBoundingBox" x="0" y="0" width="220" height="220" fill="white">
            <use xlink:href="#path-1"></use>
        </mask>
    </defs>
    <g id="Page-1" stroke="none" stroke-width="1" fill="none" fill-rule="evenodd">
        <use id="Rectangle-1" stroke-opacity="0" stroke="#979797" mask="url(#mask-2)" stroke-width="2" fill-opacity="0" fill="#D8D8D8" xlink:href="#path-1"></use>
        <path d="M195.575,53.433 L195.575,102.596 C195.575,110.362706 192.856694,116.964306 187.42,122.401 C181.983306,127.837694 175.381705,130.556 167.615,130.556 L141.985,130.556 L194.643,193 L169.712,193 L117.287,130.556 L55.775,130.556 C54.376993,130.556 51.3480233,130.245336 46.688,129.624 L46.688,193 L27.815,193 L27.815,25.473 L167.615,25.473 C175.381705,25.473 181.983306,28.1913062 187.42,33.628 C192.856694,39.0646938 195.575,45.6662945 195.575,53.433 L195.575,53.433 Z M55.775,111.45 L167.615,111.45 C170.100346,111.45 172.197325,110.595675 173.906,108.887 C175.614675,107.178325 176.469,105.081346 176.469,102.596 L176.469,53.433 C176.469,50.9476542 175.614675,48.8118423 173.906,47.0255 C172.197325,45.2391577 170.100346,44.346 167.615,44.346 L55.775,44.346 C53.2896542,44.346 51.1538423,45.2391577 49.3675,47.0255 C47.5811577,48.8118423 46.688,50.9476542 46.688,53.433 L46.688,102.596 C46.688,105.081346 47.5811577,107.178325 49.3675,108.887 C51.1538423,110.595675 53.2896542,111.45 55.775,111.45 L55.775,111.45 Z" id="R" fill="#000000"></path>
    </g>
</svg>
